<?xml version="1.0" standalone="no"?>
<!DOCTYPE svg PUBLIC "-//W3C//DTD SVG 20010904//EN"
 "http://www.w3.org/TR/2001/REC-SVG-20010904/DTD/svg10.dtd">
<svg version="1.0" xmlns="http://www.w3.org/2000/svg"
 width="1000.000000pt" height="1000.000000pt" viewBox="0 0 1000.000000 1000.000000"
 preserveAspectRatio="xMidYMid meet">
<metadata>
Created by potrace 1.14, written by Peter Selinger 2001-2017
</metadata>
<g transform="translate(0.000000,1000.000000) scale(0.100000,-0.100000)"
fill="#000000" stroke="none">
<path d="M4949 9695 c-2 -1 -26 -6 -54 -10 -27 -4 -63 -9 -80 -11 -16 -2 -48
-6 -70 -9 -70 -9 -186 -45 -231 -71 -56 -33 -283 -269 -373 -387 -135 -178
-223 -336 -242 -431 -14 -72 -8 -198 13 -286 44 -179 142 -390 216 -467 109
-111 277 -238 377 -283 106 -48 286 -120 335 -133 135 -38 319 -45 445 -17 48
11 170 56 190 70 6 4 69 38 140 75 254 133 330 188 416 295 72 90 122 218 137
349 14 133 6 309 -21 411 -14 52 -30 129 -36 170 -14 88 -45 182 -75 224 -46
66 -121 153 -165 191 -25 22 -68 62 -95 88 -61 60 -112 95 -196 135 -63 31
-206 76 -279 88 -38 7 -347 15 -352 9z"/>
<path d="M1963 8694 c-60 -11 -126 -34 -233 -82 -30 -13 -65 -28 -78 -33 -40
-16 -209 -137 -242 -175 -61 -70 -100 -140 -119 -214 -17 -65 -19 -101 -16
-270 2 -107 6 -211 9 -230 3 -19 8 -55 11 -80 11 -79 16 -114 21 -140 2 -14 9
-58 15 -98 10 -73 10 -74 -22 -123 -17 -27 -43 -58 -57 -69 -30 -24 -106 -47
-182 -54 -30 -3 -82 -8 -115 -12 -86 -8 -134 -28 -223 -89 -121 -83 -196 -170
-273 -315 -98 -185 -118 -262 -114 -449 3 -114 4 -121 50 -237 26 -65 62 -172
80 -237 33 -120 71 -191 152 -284 31 -35 34 -38 123 -148 35 -44 67 -82 71
-85 12 -10 124 -106 181 -156 62 -55 168 -116 234 -133 71 -19 153 -25 344
-24 243 0 263 5 455 108 137 73 181 93 247 114 149 45 423 69 524 46 28 -6 77
-26 110 -44 32 -18 76 -43 97 -54 21 -12 62 -41 90 -64 29 -24 58 -48 65 -54
15 -13 179 -108 207 -120 11 -5 27 -13 35 -19 8 -5 89 -51 179 -101 91 -51
192 -115 225 -144 34 -28 106 -86 160 -128 106 -82 130 -110 146 -169 18 -64
29 -283 17 -353 -3 -22 -9 -67 -12 -100 -3 -33 -8 -71 -10 -85 -2 -14 -6 -83
-10 -155 -5 -113 -3 -141 15 -209 58 -221 -2 -361 -209 -480 -88 -51 -133 -94
-368 -349 -20 -21 -56 -52 -82 -69 -67 -47 -136 -114 -174 -172 -85 -128 -111
-172 -128 -219 -30 -81 -45 -197 -43 -327 3 -228 26 -327 150 -645 101 -257
247 -453 424 -569 52 -34 116 -72 142 -84 77 -35 194 -63 276 -67 70 -2 106 3
299 43 22 5 55 18 71 28 31 20 324 260 383 314 41 37 128 80 164 80 59 0 115
-23 177 -74 35 -28 83 -64 108 -80 25 -16 65 -46 90 -66 97 -80 224 -171 264
-189 134 -62 236 -86 370 -90 67 -2 83 2 173 40 112 48 127 57 243 155 221
187 390 431 426 614 7 36 49 182 79 275 23 70 35 116 51 190 6 27 6 235 0 261
-2 12 -7 37 -10 55 -23 143 -142 386 -243 494 -35 38 -180 160 -289 242 -45
34 -88 68 -95 76 -27 26 -170 137 -178 137 -22 0 -97 95 -134 169 l-42 84 1
121 c0 67 4 180 8 251 12 180 13 278 2 360 -13 96 -11 371 3 421 16 59 71 124
180 211 53 43 104 85 114 94 16 15 315 188 341 198 6 2 29 18 51 35 21 17 48
36 60 42 11 6 119 69 240 142 242 144 289 163 428 166 87 2 195 -13 272 -39
28 -10 146 -64 263 -122 260 -128 273 -131 594 -128 123 2 232 5 243 7 11 3
38 9 60 13 71 12 172 90 350 272 196 199 207 209 283 283 69 66 116 156 137
260 9 41 38 125 65 185 66 148 89 242 91 367 1 115 -35 231 -93 300 -13 14
-44 56 -70 91 -44 60 -138 150 -233 223 -93 71 -244 142 -406 189 -103 31
-170 63 -212 104 -44 43 -43 56 22 276 19 65 32 123 46 217 20 126 6 324 -32
448 -9 30 -32 84 -51 120 -99 188 -175 246 -382 290 -47 10 -137 32 -200 49
-173 46 -283 59 -470 56 -216 -3 -289 -20 -477 -106 -24 -10 -47 -19 -51 -19
-5 0 -40 -22 -79 -49 -40 -29 -96 -57 -129 -67 -129 -37 -214 -103 -267 -208
-15 -30 -43 -115 -62 -188 -19 -73 -45 -167 -59 -208 -26 -81 -41 -157 -51
-260 -9 -99 -16 -163 -21 -187 -12 -64 -16 -82 -31 -128 -23 -74 -97 -225
-130 -264 -88 -107 -95 -113 -218 -181 -134 -73 -255 -150 -293 -187 -8 -7
-23 -18 -35 -25 -20 -10 -105 -75 -117 -89 -16 -18 -114 -65 -250 -120 -85
-34 -192 -79 -237 -100 -94 -44 -126 -52 -200 -52 -48 0 -67 9 -190 81 -182
106 -198 114 -268 142 -132 52 -323 159 -375 210 -9 9 -89 62 -178 119 -181
115 -227 160 -287 285 -30 62 -72 193 -81 251 -43 278 -61 363 -108 515 -77
253 -125 343 -258 486 -58 61 -220 191 -278 222 -14 7 -77 31 -140 53 -129 45
-95 41 -620 65 -74 3 -151 6 -170 7 -19 1 -63 -3 -97 -9z"/>
<path d="M2255 4742 c-126 -8 -389 -100 -529 -184 -55 -34 -111 -69 -124 -79
-53 -41 -137 -159 -183 -255 -26 -56 -63 -127 -83 -158 -141 -220 -181 -488
-100 -671 7 -16 24 -59 38 -93 38 -96 131 -227 226 -321 177 -174 307 -233
688 -311 96 -20 135 -21 202 -4 60 15 202 45 233 49 78 10 190 57 312 129 55
33 210 189 255 257 34 53 81 174 95 244 44 231 57 421 35 506 -21 82 -123 324
-165 389 -74 116 -260 295 -379 365 -116 68 -409 145 -521 137z"/>
<path d="M7745 4738 c-98 -21 -349 -112 -393 -142 -26 -18 -65 -44 -87 -59
-22 -15 -44 -30 -50 -34 -5 -5 -35 -24 -65 -44 -146 -96 -238 -212 -292 -369
-10 -30 -21 -71 -24 -90 -3 -19 -7 -41 -10 -49 -23 -68 -23 -543 0 -651 18
-82 70 -196 117 -253 64 -78 295 -216 488 -292 179 -71 323 -94 441 -71 14 3
41 7 60 10 19 2 58 8 85 12 28 3 59 8 70 11 11 2 42 6 70 9 69 8 198 47 270
81 139 66 207 130 317 293 99 147 144 251 164 375 3 20 8 47 10 59 6 27 6 144
0 154 -2 4 -7 23 -10 43 -14 87 -58 281 -71 313 -9 20 -33 66 -55 101 -22 36
-40 68 -40 71 0 11 -65 100 -105 143 -22 24 -75 70 -117 101 -43 31 -103 81
-135 110 -66 61 -226 143 -314 161 -69 14 -272 19 -324 7z"/>
</g>
</svg>
